<?xml version="1.0" encoding="UTF-8" standalone="no"?>
<!-- Created with Inkscape (http://www.inkscape.org/) -->

<svg
   xmlns:dc="http://purl.org/dc/elements/1.1/"
   xmlns:cc="http://creativecommons.org/ns#"
   xmlns:rdf="http://www.w3.org/1999/02/22-rdf-syntax-ns#"
   xmlns:svg="http://www.w3.org/2000/svg"
   xmlns="http://www.w3.org/2000/svg"
   xmlns:xlink="http://www.w3.org/1999/xlink"
   xmlns:sodipodi="http://sodipodi.sourceforge.net/DTD/sodipodi-0.dtd"
   xmlns:inkscape="http://www.inkscape.org/namespaces/inkscape"
   width="1280"
   height="1280"
   viewBox="0 0 1280 1280"
   id="svg2"
   version="1.1"
   inkscape:version="0.91 r13725"
   sodipodi:docname="LargeIcon.svg">
  <defs
     id="defs4">
    <linearGradient
       id="linearGradient4591-0"
       inkscape:collect="always">
      <stop
         id="stop4625"
         offset="0"
         style="stop-color:#880079;stop-opacity:1" />
      <stop
         id="stop4627"
         offset="1"
         style="stop-color:#000000;stop-opacity:1" />
    </linearGradient>
    <linearGradient
       inkscape:collect="always"
       id="linearGradient4591">
      <stop
         style="stop-color:#880000;stop-opacity:1;"
         offset="0"
         id="stop4593" />
      <stop
         style="stop-color:#000000;stop-opacity:1"
         offset="1"
         id="stop4595" />
    </linearGradient>
    <linearGradient
       gradientTransform="translate(777.18963,85.550997)"
       inkscape:collect="always"
       xlink:href="#linearGradient4591"
       id="linearGradient4597-6"
       x1="-563.71027"
       y1="-72.637772"
       x2="-563.71027"
       y2="379.47839"
       gradientUnits="userSpaceOnUse" />
    <linearGradient
       inkscape:collect="always"
       xlink:href="#linearGradient4591-0"
       id="linearGradient4852"
       x1="26.416016"
       y1="535.51172"
       x2="26.416016"
       y2="118.97852"
       gradientUnits="userSpaceOnUse" />
  </defs>
  <sodipodi:namedview
     id="base"
     pagecolor="#ffffff"
     bordercolor="#666666"
     borderopacity="1.0"
     inkscape:pageopacity="0.0"
     inkscape:pageshadow="2"
     inkscape:zoom="0.39"
     inkscape:cx="517.32427"
     inkscape:cy="559.23984"
     inkscape:document-units="px"
     inkscape:current-layer="layer1"
     showgrid="false"
     showborder="true"
     inkscape:object-nodes="true"
     inkscape:snap-smooth-nodes="true"
     inkscape:snap-center="false"
     inkscape:snap-midpoints="true"
     inkscape:object-paths="true"
     inkscape:snap-intersection-paths="true"
     inkscape:snap-global="false"
     showguides="true"
     inkscape:snap-text-baseline="false"
     inkscape:snap-others="false"
     inkscape:snap-nodes="true"
     inkscape:snap-bbox="true"
     inkscape:bbox-nodes="true"
     inkscape:window-width="1304"
     inkscape:window-height="745"
     inkscape:window-x="-8"
     inkscape:window-y="-8"
     inkscape:window-maximized="1"
     units="px"
     inkscape:snap-page="true">
    <inkscape:grid
       type="xygrid"
       id="grid3336"
       spacingx="25"
       spacingy="25.000001" />
    <sodipodi:guide
       position="0,0"
       orientation="0,1280"
       id="guide3395" />
    <sodipodi:guide
       position="1280,0"
       orientation="-1280,0"
       id="guide3397" />
    <sodipodi:guide
       position="1280,1280"
       orientation="0,-1280"
       id="guide3399" />
    <sodipodi:guide
       position="0,1280"
       orientation="1280,0"
       id="guide3401" />
    <sodipodi:guide
       position="-196.15384,426.3334"
       orientation="0,684.61538"
       id="guide3415" />
    <sodipodi:guide
       position="-257.69231,853.16675"
       orientation="0,684.61538"
       id="guide3417" />
    <sodipodi:guide
       position="426.83334,1019.2308"
       orientation="633.33333,0"
       id="guide3448" />
    <sodipodi:guide
       position="853.66669,1003.8462"
       orientation="633.33333,0"
       id="guide3450" />
  </sodipodi:namedview>
  <metadata
     id="metadata7">
    <rdf:RDF>
      <cc:Work
         rdf:about="">
        <dc:format>image/svg+xml</dc:format>
        <dc:type
           rdf:resource="http://purl.org/dc/dcmitype/StillImage" />
        <dc:title></dc:title>
      </cc:Work>
    </rdf:RDF>
  </metadata>
  <g
     inkscape:label="Layer 1"
     inkscape:groupmode="layer"
     id="layer1"
     style="display:inline"
     transform="translate(0,227.63776)">
    <g
       id="g4854"
       transform="matrix(1.0397797,0,0,1.0397797,580.25809,70.981563)"
       style="stroke:#ffffff;stroke-width:2;stroke-miterlimit:4;stroke-dasharray:none;stroke-opacity:1">
      <path
         id="path4262-0"
         d="m -97.003729,12.912327 0,391.115213 c -4.703231,0.45158 -9.443601,1.32164 -14.099611,2.58789 -29.35569,8.07358 -48.97467,29.81134 -43.82031,48.55274 5.15553,18.74066 33.13126,27.38793 62.486331,19.31445 29.35568,-8.07358 48.97466,-29.81133 43.82031,-48.55273 l 0,-177.65821 213.708979,0 0,321.97266 c -4.70323,0.45158 -9.4436,1.32164 -14.09961,2.58789 -29.35568,8.07358 -48.97466,29.81132 -43.82031,48.55272 5.15412,18.74168 33.1303,27.38996 62.48633,19.31641 29.35568,-8.07358 48.97466,-29.81133 43.82031,-48.55272 l 0,-579.236313 -48.38672,0 0,181.164043 -213.708979,0 0,-181.164043 -48.38672,0 z m 48.38672,202.574203 213.708979,0 0,11.375 -213.708979,0 0,-11.375 z"
         style="font-style:normal;font-variant:normal;font-weight:normal;font-stretch:normal;font-size:medium;font-family:'Segoe UI';-inkscape-font-specification:'Segoe UI';display:inline;fill:url(#linearGradient4597-6);fill-opacity:1;stroke:#ffffff;stroke-width:2;stroke-miterlimit:4;stroke-dasharray:none;stroke-opacity:1"
         inkscape:connector-curvature="0" />
      <path
         id="path4838"
         d="m 166.94727,118.97852 c -0.61919,0 -1.237,0.008 -1.85547,0.0137 -0.0163,1.4e-4 -0.0325,0.002 -0.0488,0.002 -2.02572,0.0183 -4.04831,0.0659 -6.06641,0.14258 -0.11396,0.004 -0.22785,0.009 -0.34179,0.0137 -2.01494,0.0798 -4.02586,0.1881 -6.03321,0.32617 -0.0365,0.003 -0.0729,0.005 -0.10937,0.008 -2.0022,0.13878 -4.00145,0.30524 -5.9961,0.50195 -0.14331,0.0141 -0.28641,0.0305 -0.42968,0.0449 -1.90937,0.19234 -3.81436,0.40885 -5.7168,0.6543 -0.20518,0.0264 -0.41013,0.055 -0.61523,0.082 -1.87423,0.24755 -3.74579,0.51727 -5.61329,0.8164 -0.19802,0.0317 -0.3958,0.0654 -0.59375,0.0977 -1.86578,0.30444 -3.72883,0.63231 -5.58789,0.98828 -0.19279,0.0369 -0.3854,0.0758 -0.57812,0.11328 -1.86579,0.36276 -3.72888,0.74741 -5.58789,1.16211 -0.18253,0.0407 -0.36441,0.0857 -0.54688,0.12696 -1.80485,0.40771 -3.60583,0.8382 -5.40429,1.29492 -0.10332,0.0262 -0.20725,0.0478 -0.31055,0.0742 -7.29526,1.88529 -14.25154,4.20299 -20.865236,6.94921 -3.779095,1.56907 -7.447252,3.27887 -11.003906,5.12891 -0.888752,0.46236 -1.773572,0.93417 -2.648437,1.41406 -3.50102,1.92035 -6.891346,3.98227 -10.169922,6.1836 -0.819761,0.55041 -1.629689,1.11024 -2.429688,1.67969 -1.600025,1.13887 -3.16062,2.31627 -4.68164,3.53124 -1.520949,1.21501 -3.001459,2.46865 -4.44336,3.75977 -2.163,1.93663 -4.237491,3.95852 -6.222656,6.06641 -1.323328,1.4053 -2.607283,2.84865 -3.851563,4.33008 -3.733162,4.44414 -7.111411,9.23001 -10.132812,14.35937 -2.84921,4.77076 -5.183741,9.85242 -7.025391,15.23242 l 51.337891,0 0.658203,0.22656 c 0.0513,-0.0765 0.106523,-0.15033 0.158203,-0.22656 0.35655,-0.53624 0.738162,-1.04977 1.109375,-1.57226 10.385249,-14.23031 27.433729,-23.48677 45.951169,-27.43164 2.57576,-0.56199 5.15276,-1.05309 7.72852,-1.47461 1.28816,-0.21081 2.57708,-0.4044 3.86523,-0.58008 2.57575,-0.35124 5.15277,-0.63297 7.72852,-0.84375 1.28815,-0.10542 2.57707,-0.19339 3.86523,-0.26367 1.28755,-0.0702 2.57574,-0.12307 3.86328,-0.15821 1.28818,-0.0351 2.57704,-0.0527 3.86524,-0.0527 0,0 0.002,0 0.002,0 0.9851,4e-5 1.94617,0.0295 2.92188,0.041 17.66737,0.20841 33.80682,2.28364 48.38672,6.26563 2.82972,0.77284 5.60097,1.61652 8.31445,2.53125 0.0262,0.009 0.0519,0.0185 0.0781,0.0273 1.78203,0.60188 3.53965,1.23332 5.27149,1.89649 0.0438,0.0168 0.0871,0.034 0.13086,0.0508 0.83421,0.32042 1.66377,0.64775 2.48633,0.98242 0.10682,0.0435 0.21173,0.0891 0.31835,0.13281 0.75751,0.31048 1.5122,0.62466 2.25977,0.94727 0.14689,0.0634 0.291,0.13143 0.4375,0.19531 0.70393,0.30683 1.40649,0.61595 2.10156,0.93359 0.19595,0.0896 0.38875,0.183 0.58399,0.27344 0.61395,0.28429 1.22698,0.56854 1.83398,0.86133 0.38983,0.1881 0.7732,0.38262 1.16016,0.57422 0.46156,0.22847 0.92533,0.45404 1.38281,0.6875 0.30031,0.1533 0.59598,0.3133 0.89453,0.46875 0.51068,0.26582 1.02377,0.53062 1.5293,0.80273 0.77033,0.41478 1.53459,0.83625 2.29297,1.26563 0.0299,0.0169 0.06,0.0338 0.0898,0.0508 0.76587,0.43447 1.52563,0.87679 2.2793,1.32617 0.022,0.0131 0.0444,0.0259 0.0664,0.0391 1.54352,0.92167 3.0624,1.8751 4.55469,2.85938 0.75585,0.49853 1.50535,1.0049 2.24805,1.51953 0,0 0.002,0.002 0.002,0.002 l 0,-53.12109 c -0.60015,-0.31554 -1.21424,-0.62456 -1.83789,-0.92969 -0.19565,-0.0957 -0.39773,-0.18852 -0.5957,-0.2832 -0.44913,-0.21485 -0.90029,-0.42715 -1.36133,-0.63672 -0.21365,-0.0971 -0.43222,-0.19311 -0.64844,-0.28906 -0.43692,-0.19397 -0.87686,-0.38683 -1.32422,-0.57617 -0.23979,-0.10145 -0.48376,-0.20067 -0.72656,-0.30078 -0.38521,-0.15892 -0.77521,-0.3171 -1.16797,-0.47266 -1.07974,-0.42743 -2.18737,-0.84203 -3.32422,-1.24414 -0.29568,-0.10466 -0.59694,-0.20565 -0.89648,-0.3086 -1.13794,-0.39079 -2.29659,-0.77258 -3.49023,-1.13867 -0.29551,-0.0907 -0.59952,-0.17838 -0.89844,-0.26758 -1.10572,-0.32965 -2.23237,-0.65003 -3.38477,-0.95898 -0.35917,-0.0964 -0.72027,-0.1908 -1.08398,-0.28516 -1.1377,-0.29491 -2.30039,-0.58021 -3.48242,-0.85547 -0.40768,-0.095 -0.81165,-0.19054 -1.22461,-0.2832 -1.14181,-0.25601 -2.31595,-0.50014 -3.49805,-0.73828 -1.36999,-0.27615 -2.77696,-0.53501 -4.20117,-0.78711 -0.4673,-0.0827 -0.92337,-0.1699 -1.39649,-0.25 -1.72373,-0.29192 -3.4898,-0.56666 -5.29101,-0.82422 -0.16422,-0.0235 -0.31757,-0.051 -0.48242,-0.0742 l 0,0.002 c -13.39025,-1.88426 -28.89219,-2.83203 -46.53125,-2.83203 z M 27.511719,215.48633 c -0.34874,3.60942 -0.533203,7.31838 -0.533203,11.13867 0,0.0794 0.002,0.15699 0.002,0.23633 0.01364,7.62389 0.685937,14.75821 2.011719,21.41015 0.0034,0.017 0.0064,0.0338 0.0098,0.0508 0.154966,0.77527 0.319385,1.54457 0.492188,2.30664 0.176553,0.7786 0.361467,1.55159 0.55664,2.3164 0.195274,0.76521 0.399369,1.52399 0.613281,2.27539 0.211927,0.74443 0.431889,1.48202 0.66211,2.21289 0.03013,0.0958 0.06331,0.18958 0.09375,0.28516 0.199248,0.6245 0.402564,1.24677 0.615234,1.86133 0.0773,0.22371 0.159203,0.44362 0.238282,0.66601 0.184881,0.51919 0.369878,1.03878 0.564453,1.55079 0.263883,0.69438 0.536647,1.38327 0.818359,2.06445 0.293933,0.71119 0.596652,1.41465 0.910156,2.11133 1.311618,2.76376 2.741208,5.45679 4.28711,8.08007 0.772917,1.31162 1.574778,2.60633 2.40625,3.88282 1.24727,1.91477 2.560433,3.78927 3.939453,5.625 0.459651,0.61189 0.9261,1.21915 1.40039,1.82226 2.846126,3.61919 5.955019,7.07998 9.328125,10.38281 8.99395,8.80658 19.580456,16.86234 31.759766,24.16993 12.1793,7.30758 25.294618,14.52238 39.347658,21.64257 13.30355,6.74546 25.66981,13.20924 37.09961,19.39258 0.32442,0.16744 0.6351,0.33784 0.95703,0.50586 l 0,-54.13086 c -0.41411,-0.2056 -0.82292,-0.41416 -1.23828,-0.61914 -14.05304,-6.93283 -26.51317,-13.30274 -37.38086,-19.11133 -1.33504,-0.72607 -2.64446,-1.45556 -3.92969,-2.1875 -3.8558,-2.19578 -7.48667,-4.41753 -10.89453,-6.66601 -1.13588,-0.74952 -2.24787,-1.50244 -3.33399,-2.25781 -2.17236,-1.51071 -4.24547,-3.03229 -6.21875,-4.56641 -0.98661,-0.76707 -1.94789,-1.53763 -2.88476,-2.31055 -0.937248,-0.77323 -1.846945,-1.55586 -2.728516,-2.34961 -0.881243,-0.79341 -1.732978,-1.59625 -2.558594,-2.41015 -2.111686,-2.08177 -4.019808,-4.23923 -5.767578,-6.45508 -0.302544,-0.38357 -0.620469,-0.76085 -0.912109,-1.14844 -0.658737,-0.87539 -1.289469,-1.76037 -1.892579,-2.65625 -1.206202,-1.79177 -2.301443,-3.62431 -3.285156,-5.49804 -0.13806,-0.27612 -0.269363,-0.55796 -0.402344,-0.8379 -2.944779,-6.19931 -4.633634,-13.34 -5.083984,-21.41015 -1.1e-4,-0.002 1.1e-4,-0.004 0,-0.006 -0.02751,-0.49348 -0.04629,-0.99318 -0.06641,-1.49219 -0.03543,-0.9755 -0.06836,-1.953 -0.06836,-2.95508 0,-2.38756 0.123406,-4.69162 0.359376,-6.92187 l -49.292969,0 z m 185.966801,119.24805 0,66.61718 c 0.13114,0.21959 0.27597,0.43359 0.40429,0.6543 4.87172,8.05707 7.3086,17.51903 7.3086,28.38672 0,6.5e-4 0,0.003 0,0.004 -3e-5,1.13127 -0.0291,2.24177 -0.0742,3.34375 -0.009,0.21952 -0.0185,0.43986 -0.0293,0.65821 -0.0513,1.03958 -0.12298,2.06683 -0.21484,3.08008 -0.0208,0.22885 -0.0436,0.45608 -0.0664,0.68359 -0.10059,1.00297 -0.21662,1.99579 -0.35742,2.97266 -0.0212,0.14683 -0.0463,0.29125 -0.0684,0.4375 -0.13511,0.89519 -0.28983,1.7773 -0.45898,2.65039 -0.0476,0.24538 -0.0923,0.49269 -0.14258,0.73632 -0.18806,0.91217 -0.3973,1.81153 -0.62305,2.69922 -0.0655,0.25742 -0.13444,0.51223 -0.20313,0.76758 -0.23858,0.8877 -0.49069,1.76607 -0.76757,2.62891 -0.0517,0.16106 -0.10906,0.31832 -0.16211,0.47851 -0.25329,0.76531 -0.52485,1.5201 -0.8086,2.26563 -0.0919,0.24131 -0.18031,0.48537 -0.27539,0.72461 -0.31963,0.80464 -0.65989,1.59575 -1.01562,2.37695 -0.20831,0.4573 -0.418,0.91401 -0.63867,1.36328 -10e-4,0.002 -0.003,0.004 -0.004,0.006 -0.56135,1.1425 -1.16147,2.25903 -1.80273,3.34961 l 0,0.006 c -3.47139,5.90246 -8.11238,11.04538 -13.92774,15.42578 -8.71142,6.53357 -20.20807,11.05702 -34.45898,13.59375 -0.96447,0.17168 -1.94797,0.32883 -2.9375,0.48242 -0.30282,0.0469 -0.60497,0.0954 -0.91016,0.14063 -0.92761,0.13771 -1.86507,0.26862 -2.81445,0.39062 -0.38022,0.0487 -0.76666,0.0925 -1.15039,0.13868 -2.86029,0.34541 -5.82139,0.61774 -8.87696,0.82226 -0.75857,0.0504 -1.51649,0.10091 -2.28711,0.14258 -0.67585,0.0369 -1.35975,0.0675 -2.04492,0.0977 -1.0071,0.0439 -2.02366,0.0819 -3.05078,0.11132 -0.50718,0.0147 -1.01133,0.0318 -1.52344,0.043 -1.60204,0.0345 -3.22128,0.0566 -4.87109,0.0566 -3.16194,0 -6.43,-0.11832 -9.80273,-0.35547 -2.2486,-0.15806 -4.54248,-0.36934 -6.88477,-0.63281 -3.51326,-0.39524 -7.13142,-0.90863 -10.85547,-1.54101 0,0 -0.002,0 -0.002,0 -1.24072,-0.21069 -2.48192,-0.43093 -3.72266,-0.66211 0,0 -0.002,0 -0.002,0 -1.24137,-0.23132 -2.48128,-0.47279 -3.722658,-0.72461 -2.482703,-0.50357 -4.966514,-1.04923 -7.449218,-1.63477 -3.723549,-0.87833 -7.446429,-1.84948 -11.169922,-2.91211 0,0 -0.002,0 -0.002,0 -1.241366,-0.35427 -2.483258,-0.719 -3.72461,-1.09375 -1.217343,-0.39798 -2.429138,-0.80616 -3.634765,-1.22461 0,0 -0.002,0 -0.002,0 -1.206204,-0.41866 -2.40513,-0.84795 -3.59961,-1.28711 -1.194508,-0.43915 -2.383608,-0.888 -3.566406,-1.34765 -1.182198,-0.45943 -2.358801,-0.93026 -3.529297,-1.41016 0,0 -0.002,0 -0.002,0 -1.170493,-0.47991 -2.335346,-0.97031 -3.494141,-1.4707 0,0 -0.002,0 -0.002,0 -1.159339,-0.50064 -2.311348,-1.01207 -3.458984,-1.53321 -2.29533,-1.04226 -4.565967,-2.1238 -6.814453,-3.24804 0,0 -0.002,-0.002 -0.002,-0.002 -1.10003,-0.56171 -2.182125,-1.13166 -3.244141,-1.71093 0,0 -0.002,-0.002 -0.002,-0.002 -1.061966,-0.57927 -2.10495,-1.16685 -3.128906,-1.76367 0,0 -0.002,-0.002 -0.002,-0.002 -2.048574,-1.19408 -4.021527,-2.42319 -5.917969,-3.6875 0,0 -0.002,-0.002 -0.002,-0.002 -0.948562,-0.63242 -1.876607,-1.2719 -2.78711,-1.92188 -0.91052,-0.64995 -1.803321,-1.30904 -2.675781,-1.97656 -0.690886,-0.52862 -1.360322,-1.06779 -2.027344,-1.60742 -0.174642,-0.1413 -0.360197,-0.27983 -0.533203,-0.42188 -0.834391,-0.6851 -1.648974,-1.37938 -2.445312,-2.08203 l 0,55.65039 0,0.002 c 1.966779,1.33461 4.174476,2.63112 6.615234,3.88672 4.069526,2.09332 8.796595,4.07548 14.183594,5.94922 5.234474,1.67058 10.639617,3.17213 16.205078,4.51172 0.286021,0.0688 0.568573,0.14103 0.855469,0.20898 3.522638,0.83457 7.111193,1.60387 10.765625,2.30664 8.52551,1.80348 16.905936,3.17642 25.14453,4.11915 1.17693,0.1347 2.35039,0.25984 3.52148,0.37695 0,0 0.002,0 0.002,0 9.36869,1.12424 17.23867,1.6875 23.60938,1.6875 0.15263,0 0.30257,-0.006 0.45508,-0.006 1.93588,-0.003 3.85913,-0.0317 5.77539,-0.0762 0.64457,-0.0147 1.28729,-0.0335 1.92969,-0.0527 1.44314,-0.0441 2.88047,-0.10055 4.3125,-0.16797 1.41235,-0.0654 2.81708,-0.14653 4.21875,-0.23437 0.94969,-0.0603 1.90092,-0.11878 2.8457,-0.18945 1.2655,-0.0935 2.52455,-0.20048 3.78125,-0.3125 0.48593,-0.0437 0.97045,-0.0902 1.45508,-0.13672 10.20549,-0.97041 20.1302,-2.5303 29.75195,-4.72656 14.28409,-3.10524 27.14784,-7.88767 38.60156,-14.3379 0.14788,-0.0831 0.294,-0.16829 0.44141,-0.25195 0.93325,-0.53077 1.85714,-1.07383 2.77148,-1.62695 0.20379,-0.12308 0.40849,-0.24494 0.61133,-0.36914 1.04643,-0.64168 2.08404,-1.29362 3.10547,-1.96485 7.48325,-4.8483 14.0766,-10.49823 19.78125,-16.94726 0.63384,-0.71659 1.25726,-1.44139 1.86914,-2.17774 0.61189,-0.73632 1.2128,-1.48415 1.80273,-2.24023 0.58993,-0.75611 1.16836,-1.52101 1.73633,-2.29688 1.70393,-2.32753 3.3101,-4.7446 4.81641,-7.25 0.50181,-0.83465 0.99277,-1.67881 1.47266,-2.5332 0,0 0,-0.002 0,-0.002 0.49157,-0.86611 0.96881,-1.74332 1.42968,-2.63281 0,0 0,-0.002 0,-0.002 0.46112,-0.89002 0.90752,-1.79164 1.33789,-2.70508 2.58225,-5.48068 4.61037,-11.38316 6.08594,-17.70703 0.24579,-1.05333 0.47632,-2.11859 0.69141,-3.19531 0,0 0,-0.002 0,-0.002 0.21519,-1.07737 0.41516,-2.16484 0.59961,-3.26563 1.10667,-6.60493 1.66015,-13.63196 1.66015,-21.08008 0,-14.98991 -2.9043,-28.29493 -8.71289,-39.9121 -5.62122,-11.61719 -13.30342,-22.2037 -23.04687,-31.75977 -7.52055,-7.37593 -16.00164,-14.24398 -25.41992,-20.61523 z"
         style="font-style:normal;font-variant:normal;font-weight:normal;font-stretch:normal;font-size:medium;font-family:'Segoe UI';-inkscape-font-specification:'Segoe UI';fill:url(#linearGradient4852);fill-opacity:1;stroke:#ffffff;stroke-width:2;stroke-miterlimit:4;stroke-dasharray:none;stroke-opacity:1"
         inkscape:connector-curvature="0" />
    </g>
    <g
       id="g4254"
       transform="translate(696.22821,188.56181)" />
  </g>
</svg>
